<svg width="90" height="102" viewBox="0 0 90 102" fill="none" xmlns="http://www.w3.org/2000/svg">
<path d="M48.7273 19.8182H64.2955V59.7045C64.2765 63.4924 63.3201 66.8258 61.4261 69.7045C59.5511 72.5644 56.9564 74.7992 53.642 76.4091C50.3466 78 46.5492 78.7955 42.25 78.7955C38.5189 78.7955 35.1098 78.1515 32.0227 76.8636C28.9356 75.5568 26.4735 73.5114 24.6364 70.7273C22.7992 67.9242 21.8902 64.2879 21.9091 59.8182H37.7045C37.7614 61.2765 38.0076 62.5076 38.4432 63.5114C38.8977 64.5152 39.5227 65.2727 40.3182 65.7841C41.1326 66.2765 42.1174 66.5227 43.2727 66.5227C44.447 66.5227 45.4318 66.267 46.2273 65.7557C47.0417 65.2443 47.6572 64.4867 48.0739 63.483C48.4905 62.4602 48.7083 61.2008 48.7273 59.7045V19.8182Z" fill="black"/>
<path d="M7.5 65C7.50012 105 82.5 105 82.5004 65" stroke="black" stroke-width="14"/>
</svg>
