<svg width="1153" height="1153" viewBox="0 0 1153 1153" fill="none" xmlns="http://www.w3.org/2000/svg">
<g clip-path="url(#clip0_329_346)">
<path d="M583.463 803.024C583.861 802.992 584.25 802.895 584.655 802.83C584.086 800.72 583.515 798.87 582.949 797.139C583.213 800.162 583.463 803.024 583.463 803.024Z" fill="black"/>
<path d="M567.995 794.799C568.304 794.565 568.619 794.502 568.941 794.358C568.56 793.944 568.177 793.54 567.809 793.041C567.869 793.619 567.932 794.213 567.995 794.799Z" fill="black"/>
<path d="M595.773 788.122C593.4 785.395 591.333 784.311 589.539 786.242C588.637 787.219 587.814 788.927 587.021 791.621C586.233 794.304 585.487 797.953 584.693 802.827C589.114 802.038 593.349 799.106 598.063 801.858C598.2 803.563 598.392 806.147 598.549 808.8C598.709 811.446 598.825 814.175 598.887 816.03C600.167 817.837 601.376 817.837 602.587 817.321C603.799 816.807 604.987 815.825 606.208 815.787C606.34 819.576 606.342 823.595 607.564 823.592C608.364 824.082 609.098 824.247 609.759 824.128C610.09 824.069 610.403 823.938 610.697 823.742C610.771 823.691 610.843 823.642 610.914 823.579C610.985 823.502 611.055 823.419 611.123 823.331C611.26 823.154 611.391 822.955 611.518 822.736C612.536 820.977 613.23 817.869 613.458 814.126C609.884 810.081 606.686 804.842 603.743 800.056C600.806 795.255 598.141 790.858 595.773 788.122Z" fill="black"/>
<path d="M574.15 794.997C577.106 796.429 580.129 798.545 582.75 796.575C579.846 788.033 576.847 783.221 572.271 778.728C572.947 784.079 573.591 789.482 574.15 794.997Z" fill="black"/>
<path d="M308.24 319.439C307.554 321.672 307.014 323.855 306.473 325.961C305.954 328.075 305.438 330.115 305.034 332.131C304.33 336.191 303.715 340.063 303.187 343.914C302.8 347.782 302.415 351.628 302.016 355.622C301.792 359.63 301.429 363.757 301.062 368.201C301.808 368.278 302.183 368.592 300.893 371.458C300.953 370.315 301.007 369.269 301.062 368.201C300.381 368.098 299.319 368.199 299.023 366.673C299.153 369.564 299.288 372.576 299.426 375.674C299.457 376.443 299.488 377.219 299.52 377.999L299.564 379.17L299.66 380.351C299.784 381.925 299.91 383.516 300.037 385.118C300.149 386.715 300.262 388.324 300.376 389.94L300.453 391.151L300.585 392.364L300.844 394.793C301.002 396.412 301.161 398.034 301.318 399.654C301.485 401.272 301.552 402.892 301.795 404.496C303.251 406.072 304.714 407.559 306.164 408.874C304.229 393.254 304.284 377.486 305.11 362.449C305.923 347.382 307.483 333.031 308.24 319.439Z" fill="black"/>
<path d="M313.719 410.493C313.835 411.539 313.972 412.52 314.076 413.56C314.89 410.663 314.472 410.436 313.719 410.493Z" fill="black"/>
<path d="M666.742 174.697C681.931 181.937 696.497 190.566 710.305 200.586C718.919 206.223 727.24 211.285 735.411 216.33C743.567 221.382 751.596 226.384 759.48 231.869C744.668 218.457 728.798 206.097 712.695 196.288C696.734 186.493 680.905 179.112 666.742 174.697Z" fill="black"/>
<path d="M826.1 302.805C821.299 289.543 814.918 278.349 807.775 268.753C800.627 259.143 792.71 251.112 784.486 243.974C798.797 260.405 811.333 278.467 821.782 297.91C823.232 299.502 824.697 301.235 826.1 302.805Z" fill="black"/>
<path d="M759.479 231.869C776.229 247.074 791.485 263.538 805.206 279.166C798.926 268.442 791.621 259.531 783.873 251.856C776.122 244.17 767.889 237.736 759.479 231.869Z" fill="black"/>
<path d="M454.252 263.865C454.578 263.441 454.9 263.021 455.217 262.607C456.48 260.922 457.642 259.207 458.645 257.472L454.405 259.604C452.992 260.32 451.541 260.985 450.21 261.82C447.506 263.428 444.715 264.932 442.219 266.78C439.156 270.929 437.058 274.393 435.195 276.877C434.716 277.486 434.354 278.131 433.965 278.682C433.587 279.243 433.228 279.753 432.888 280.218C432.209 281.146 431.603 281.891 431.063 282.48C431.074 283.016 431.087 283.595 431.1 284.222C431.125 284.846 431.154 285.518 431.183 286.243C431.23 287.626 431.284 289.209 431.345 291.031C431.712 290.678 432.102 290.303 432.465 289.954C437.489 282.152 443.854 274.653 451.338 267.781C451.999 266.912 452.649 266.035 453.282 265.15C453.592 264.699 453.921 264.276 454.252 263.865Z" fill="black"/>
<path d="M429.729 275.794C429.044 275.644 428.212 277.16 427.681 278.935C427.548 279.379 427.434 279.839 427.345 280.295C427.274 280.768 427.233 281.239 427.217 281.682C427.188 282.568 427.276 283.349 427.513 283.862C427.751 284.375 428.139 284.622 428.707 284.439C429.291 284.268 429.979 283.604 431.064 282.481C430.932 277.798 430.425 275.932 429.729 275.794Z" fill="black"/>
<path d="M466.406 176.014C463.755 177.19 461.233 178.309 458.619 179.469C459.296 179.242 459.988 179.01 460.672 178.78C462.567 177.866 464.518 176.925 466.406 176.014Z" fill="black"/>
<path d="M634.97 219.484C634.086 219.385 633.179 219.265 632.257 219.122C631.325 219.001 630.367 218.88 629.404 218.722C627.475 218.411 625.508 217.999 623.549 217.463C623.059 217.329 622.571 217.187 622.082 217.039C621.586 216.91 621.092 216.774 620.599 216.629C619.614 216.34 618.636 216.017 617.671 215.657C615.095 214.837 612.535 213.971 609.904 213.346L605.984 212.35L604.026 211.862C603.376 211.694 602.722 211.542 602.059 211.423C599.421 210.907 596.79 210.41 594.17 209.932C593.518 209.801 592.859 209.706 592.198 209.626L590.221 209.368C588.906 209.203 587.593 209.038 586.284 208.874L590.289 209.572C591.622 209.819 592.973 209.994 594.291 210.313C596.95 210.883 599.604 211.451 602.246 212.017C607.493 213.329 612.743 214.552 617.82 216.045C619.101 216.391 620.375 216.735 621.641 217.077C622.904 217.433 624.141 217.841 625.387 218.207C626.634 218.575 627.873 218.94 629.103 219.302C630.334 219.667 631.58 219.976 632.774 220.386C635.182 221.159 637.571 221.889 639.939 222.57C641.132 222.892 642.285 223.272 643.433 223.638C644.583 224 645.728 224.349 646.865 224.683C644.404 223.427 642.499 220.969 639.943 219.834C638.413 219.792 636.737 219.681 634.97 219.484Z" fill="black"/>
<path d="M616.596 677.793C616.583 677.786 616.581 677.805 616.584 677.754L616.584 677.7C616.582 677.695 616.585 677.616 616.569 677.756L616.558 677.84C616.704 677.89 616.694 677.816 616.596 677.793Z" fill="black"/>
<path d="M853.901 415.81C853.764 412.564 853.636 409.318 853.443 406.083C852.581 393.154 850.718 380.408 847.967 367.985C842.462 343.125 833.436 319.607 821.783 297.91C816.49 291.933 810.917 285.696 805.207 279.166C806.682 281.641 808.035 284.264 809.404 286.934C810.753 289.618 811.972 292.449 813.195 295.333C810.411 292.672 807.712 289.817 804.843 286.956C803.448 285.513 802.027 284.043 800.581 282.548C799.127 281.074 797.673 279.572 796.219 278.044C790.328 271.992 784.286 265.638 777.896 259.301C771.515 252.96 764.883 246.565 757.993 240.308C751.106 234.048 743.91 227.979 736.547 222.19C729.171 216.416 721.626 210.918 713.939 205.937C710.082 203.473 706.249 201.026 702.385 198.861C700.462 197.76 698.552 196.666 696.657 195.581C694.763 194.5 692.808 193.555 690.912 192.56C675.689 184.687 660.816 179.108 647.837 176.155C618.594 168.946 587.898 164.091 556.193 163.788C540.359 163.642 524.304 164.644 508.261 167.102C492.236 169.555 476.278 173.424 460.672 178.781C445.965 186.027 431.9 194.657 418.8 204.562C405.708 214.48 393.652 225.764 382.923 238.111C392.157 226.271 403.157 215.297 415.79 205.423C428.426 195.554 442.692 186.743 458.62 179.47C442.043 185.236 425.956 192.891 410.732 202.203C408.837 203.38 406.918 204.525 405.038 205.733L399.497 209.523C395.744 211.972 392.25 214.799 388.654 217.492C386.835 218.814 385.15 220.308 383.422 221.75L378.259 226.107C376.596 227.628 374.96 229.182 373.311 230.722L370.841 233.039L369.611 234.202L368.437 235.424C366.831 237.395 365.23 239.36 363.632 241.32L362.432 242.779C362.037 243.27 361.675 243.789 361.295 244.291L359.039 247.316L356.783 250.321C356.032 251.32 355.262 252.303 354.583 253.352C353.179 255.411 351.777 257.466 350.377 259.519C348.929 261.535 347.672 263.674 346.369 265.775C345.083 267.887 343.739 269.958 342.499 272.089L338.917 278.555C338.326 279.634 337.708 280.698 337.141 281.79L335.514 285.103C334.43 287.31 333.347 289.518 332.262 291.728C331.293 293.989 330.323 296.252 329.351 298.519L327.901 301.918C327.444 303.063 327.041 304.231 326.61 305.387C325.767 307.706 324.922 310.029 324.075 312.356C323.292 314.704 322.614 317.093 321.887 319.467C321.532 320.657 321.177 321.848 320.821 323.041C320.448 324.228 320.212 325.457 319.903 326.666C319.331 329.093 318.757 331.527 318.182 333.969L317.971 334.884L317.806 335.812L317.478 337.669C317.264 338.908 317.049 340.149 316.835 341.392C316.307 346.049 315.942 350.701 315.657 354.953C315.607 356.019 315.507 357.051 315.544 358.071C315.565 359.09 315.607 360.078 315.677 361.032C315.816 362.94 316.069 364.708 316.498 366.29C317.169 367.446 317.766 368.585 318.502 369.717C319.214 370.847 319.928 371.958 320.644 373.043C322.077 375.213 323.519 377.279 324.978 379.189C325.033 367.648 325.476 355.674 326.212 345.271C326.355 346.677 327.377 346.726 328.06 346.881C328.469 344.927 328.833 343.034 329.164 341.185C329.324 340.258 329.482 339.345 329.638 338.441C329.774 337.532 330.009 336.659 330.181 335.777C330.539 334.013 330.89 332.282 331.238 330.565C331.579 328.842 331.88 327.118 332.338 325.435C332.765 323.738 333.194 322.037 333.627 320.313C334.081 318.592 334.491 316.827 335.113 315.09C335.695 313.339 336.31 311.552 336.972 309.715C337.309 308.799 337.652 307.869 338.001 306.922C338.375 305.985 338.816 305.057 339.244 304.102C337.461 316.276 334.767 328.938 332.584 342.265C330.391 355.562 328.727 369.534 328.801 383.534C330.254 385.013 331.718 386.317 333.192 387.426C334.189 359.112 340.315 330.778 351.39 304.297C356.931 291.062 363.718 278.3 371.739 266.308C372.207 265.531 372.754 264.818 373.274 264.084L374.847 261.885L377.986 257.465C380.226 254.614 382.463 251.767 384.696 248.924C387.089 246.186 389.479 243.451 391.864 240.722C393.124 239.408 394.383 238.097 395.641 236.786L397.528 234.807C398.162 234.151 398.771 233.466 399.447 232.857C401.286 230.928 403.133 228.991 404.987 227.047C405.458 226.566 405.914 226.061 406.403 225.598L407.882 224.217C408.875 223.294 409.87 222.369 410.866 221.443C411.87 220.515 412.876 219.587 413.883 218.656C414.921 217.765 415.985 216.902 417.043 216.02C418.108 215.141 419.174 214.261 420.241 213.38C421.315 212.502 422.375 211.59 423.508 210.789C422.257 211.353 421.067 212.025 419.853 212.666C418.638 213.308 417.421 213.951 416.201 214.595C414.974 215.234 413.744 215.874 412.512 216.516C411.306 217.204 410.097 217.894 408.885 218.586L412.556 216.029L416.346 213.652C418.887 212.091 421.36 210.416 423.997 209.016C426.487 207.634 428.949 206.241 431.506 204.907C433.466 203.617 435.435 202.322 437.411 201.02C438.406 200.374 439.397 199.706 440.409 199.073C441.438 198.471 442.469 197.867 443.502 197.262C445.583 196.052 447.674 194.837 449.777 193.615C451.94 192.498 454.114 191.374 456.301 190.246C457.402 189.683 458.506 189.118 459.613 188.552C460.743 188.039 461.877 187.524 463.014 187.009C465.295 185.983 467.59 184.924 469.924 183.91C472.293 182.979 474.677 182.043 477.077 181.1C478.286 180.644 479.484 180.123 480.719 179.717C481.954 179.301 483.192 178.884 484.435 178.466L481.483 179.591L480.009 180.154L478.553 180.784C476.62 181.62 474.682 182.458 472.74 183.298L469.838 184.549L466.982 185.933C465.087 186.851 463.186 187.771 461.283 188.693L459.86 189.38L458.462 190.133L455.67 191.641C453.816 192.639 451.959 193.638 450.098 194.641C448.286 195.723 446.471 196.809 444.652 197.896L441.934 199.515C441.482 199.787 441.025 200.047 440.578 200.328L439.253 201.203L440.682 200.528C441.165 200.315 441.657 200.122 442.144 199.918C443.121 199.517 444.099 199.115 445.078 198.712C447.037 197.915 449.001 197.115 450.969 196.313C452.972 195.608 454.98 194.9 456.991 194.192C459.003 193.494 460.995 192.733 463.055 192.161C467.152 190.956 471.205 189.597 475.37 188.617L481.571 186.996L487.826 185.617C496.145 183.702 504.547 182.349 512.89 180.943C517.087 180.344 521.265 179.748 525.416 179.156C527.503 178.915 529.588 178.654 531.669 178.37C532.711 178.222 533.751 178.074 534.789 177.927C535.831 177.812 536.87 177.697 537.908 177.583C540.113 177.162 542.42 176.777 544.811 176.423C546.008 176.221 547.221 176.142 548.456 176.025C549.692 175.924 550.944 175.822 552.211 175.719C553.483 175.629 554.769 175.538 556.067 175.447C557.369 175.34 558.675 175.373 559.999 175.336C562.653 175.308 565.348 175.281 568.068 175.252C578.949 175.49 590.251 176.422 601.037 177.347C601.593 177.015 602.122 176.673 602.621 176.295C604.167 176.852 605.7 177.365 607.244 177.863C610.106 177.838 613.311 177.465 615.27 177.397C618.068 177.956 620.868 178.514 623.67 179.073C625.086 179.327 626.458 179.712 627.858 180.029L632.052 181.031C633.451 181.372 634.862 181.695 636.263 182.055C637.652 182.448 639.044 182.842 640.436 183.236C641.832 183.635 643.23 184.035 644.63 184.435C646.033 184.835 647.442 185.236 648.818 185.718C651.592 186.659 654.376 187.602 657.17 188.549C659.954 189.541 662.687 190.681 665.466 191.78C666.846 192.347 668.25 192.881 669.618 193.495C670.98 194.123 672.346 194.752 673.716 195.383C675.083 196.027 676.453 196.672 677.827 197.32C678.511 197.651 679.205 197.967 679.881 198.317L681.9 199.391C683.849 200.188 685.827 201.015 687.82 201.875C693.957 204.317 701.243 210.87 706.412 214.786C704.421 213.301 702.411 211.868 700.409 210.456C698.39 209.076 696.334 207.794 694.299 206.502C690.261 203.871 686.051 201.625 681.9 199.391C668.963 194.301 657.001 191.396 645.068 188.367C642.053 187.674 639.053 186.939 636.043 186.13C634.548 185.701 633.006 185.364 631.472 184.971C629.936 184.582 628.394 184.172 626.843 183.736C623.759 182.812 620.557 182.01 617.308 181.02C615.68 180.534 614.043 179.989 612.37 179.456C610.685 178.962 608.978 178.432 607.244 177.862C605.286 177.891 603.496 177.808 602.313 177.476C601.894 177.426 601.471 177.368 601.038 177.347C598.774 178.64 595.888 179.329 592.584 179.577C591.758 179.639 590.905 179.674 590.03 179.682C589.152 179.698 588.24 179.739 587.314 179.731C585.458 179.729 583.519 179.639 581.52 179.482C580.521 179.406 579.508 179.304 578.48 179.202C577.446 179.136 576.4 179.055 575.345 178.962C573.235 178.777 571.088 178.545 568.93 178.282C567.853 178.131 566.764 178.052 565.676 177.956C564.588 177.855 563.5 177.754 562.415 177.653C560.245 177.46 558.095 177.184 555.975 177.042C558.788 179.655 549.878 177.916 549.758 180.352L546.394 181.073C545.277 181.307 544.163 181.64 543.056 181.918C540.858 182.497 538.667 183.075 536.487 183.65C535.946 183.798 535.407 183.926 534.87 184.089L533.266 184.592C532.204 184.925 531.146 185.258 530.093 185.589C527.996 186.267 525.925 186.86 523.903 187.578C521.899 188.312 519.917 189.039 517.962 189.755C516.995 190.108 516.036 190.459 515.083 190.807C514.134 191.151 513.205 191.579 512.281 191.952C510.449 192.714 508.649 193.462 506.885 194.196C506.011 194.57 505.141 194.887 504.297 195.29C503.454 195.682 502.621 196.07 501.797 196.453C500.476 196.999 499.155 197.516 497.836 198.006C496.518 198.503 495.191 198.93 493.892 199.473C491.283 200.496 488.677 201.432 486.079 202.312C483.504 203.288 480.956 204.278 478.415 205.204L476.516 205.902C475.887 206.143 475.271 206.423 474.651 206.68C473.416 207.206 472.185 207.73 470.958 208.252C461.218 212.494 452.125 217.562 445.528 225.131C445.07 225.699 444.515 226.252 443.881 226.791C443.564 227.062 443.225 227.327 442.873 227.595C442.53 227.88 442.171 228.164 441.797 228.446C440.299 229.574 438.564 230.68 436.736 231.786C434.879 232.846 433.067 234.12 431.272 235.34C430.378 235.957 429.502 236.579 428.661 237.207C427.819 237.833 427.009 238.46 426.309 239.167C425.285 240.594 424.195 242.023 423.065 243.448C422.498 244.151 421.924 244.864 421.345 245.583C420.763 246.292 420.235 247.073 419.671 247.813C420.483 247.326 421.253 246.787 422.103 246.349L424.625 245.006C426.307 244.118 427.992 243.244 429.678 242.39C430.365 242.278 427.675 244.965 423.382 248.97C422.364 250.028 421.251 251.183 420.068 252.411C419.478 253.019 418.87 253.644 418.248 254.285C417.631 254.93 416.97 255.554 416.38 256.276C415.168 257.672 413.912 259.12 412.635 260.592C412.008 261.334 411.335 262.039 410.738 262.818C410.142 263.597 409.545 264.379 408.947 265.161C407.762 266.726 406.554 268.259 405.43 269.806C404.38 271.405 403.349 272.975 402.354 274.492C401.866 275.247 401.386 275.99 400.918 276.715C400.466 277.45 400.085 278.212 399.689 278.929C398.912 280.373 398.199 281.733 397.569 282.988C397.262 283.618 396.968 284.219 396.69 284.787C396.446 285.382 396.233 285.956 396.038 286.49C395.652 287.562 395.36 288.498 395.181 289.278C394.821 290.837 394.912 291.77 395.58 291.898C395.703 291.987 396.209 291.389 397.034 290.211C397.447 289.622 397.94 288.887 398.504 288.019C398.793 287.592 399.071 287.104 399.42 286.633C399.767 286.16 400.134 285.659 400.521 285.131C401.286 284.061 402.127 282.885 403.036 281.612C403.5 280.981 403.929 280.284 404.464 279.632C404.992 278.974 405.537 278.295 406.099 277.596C407.226 276.198 408.385 274.686 409.646 273.137C410.98 271.642 412.373 270.082 413.812 268.468C419.693 262.099 426.987 255.284 435.166 249.205C443.33 243.112 452.407 237.896 461.047 233.989C465.173 234.173 465.384 239.005 464.39 244.021C464.139 245.275 463.809 246.541 463.431 247.754C463.052 248.965 462.673 250.209 462.247 251.288C461.407 253.471 460.482 255.184 459.627 255.941C459.347 256.454 458.978 256.967 458.645 257.47C460.962 256.478 463.276 255.486 465.564 254.472C467.911 253.574 470.251 252.678 472.576 251.788C473.407 251.217 474.298 250.766 475.17 250.264L477.803 248.777L480.452 247.272L483.183 245.926L485.927 244.561C486.845 244.109 487.755 243.616 488.703 243.24L494.37 240.785C495.129 240.43 495.909 240.149 496.689 239.864L499.034 238.993L501.388 238.109C502.176 237.823 502.957 237.485 503.76 237.26C505.363 236.754 506.968 236.248 508.574 235.741L510.996 234.967L513.446 234.336C515.088 233.904 516.731 233.472 518.376 233.039C520.028 232.622 521.694 232.342 523.364 231.975L525.873 231.446L527.132 231.178L528.41 230.982L533.55 230.188C531.734 230.776 529.916 231.365 528.098 231.954C527.191 232.227 526.316 232.622 525.435 232.971L522.816 234.05C521.183 234.908 519.476 235.554 517.782 236.389C516.079 237.174 514.348 237.883 512.587 238.521C511.703 238.816 510.823 239.19 509.934 239.536C509.044 239.881 508.148 240.209 507.243 240.523C506.337 240.836 505.425 241.133 504.504 241.416C503.58 241.677 502.672 242.066 501.743 242.363C499.893 242.998 498.006 243.562 496.094 244.109C488.509 246.553 480.571 248.939 472.576 251.787C470.667 253.011 468.761 254.231 466.859 255.45C465.018 256.75 463.221 258.087 461.418 259.374C460.971 259.701 460.515 260.012 460.076 260.35L458.794 261.404L456.241 263.49C455.402 264.193 454.526 264.836 453.726 265.574L451.338 267.78C451.186 267.969 451.066 268.152 450.925 268.34C460.074 262.61 470.503 258.405 480.844 255.112C489.617 250.152 499.146 246 509.135 242.824L511.01 242.208L511.949 241.897C512.264 241.805 512.581 241.729 512.898 241.643L516.708 240.624L518.624 240.102C519.263 239.923 519.904 239.743 520.549 239.625L524.426 238.799L526.375 238.374C527.026 238.23 527.675 238.074 528.342 237.988L532.336 237.352L534.342 237.022C535.013 236.913 535.682 236.784 536.361 236.73L540.434 236.285C538.63 236.792 536.839 237.242 535.078 237.823C533.338 238.448 531.598 239.075 529.853 239.702C529.391 239.912 528.927 240.115 528.461 240.311C527.993 240.498 527.529 240.699 527.069 240.924C526.146 241.352 525.215 241.754 524.277 242.131C523.338 242.508 522.391 242.861 521.437 243.19C520.96 243.359 520.48 243.502 519.999 243.677C519.52 243.856 519.038 244.037 518.553 244.218C516.617 244.92 514.647 245.53 512.64 246.067C510.648 246.739 508.621 247.334 506.555 247.86C498.337 250.181 489.63 252.335 480.846 255.112C472.495 259.837 464.794 265.256 458.049 271.262C451.316 277.282 445.518 283.825 440.821 290.616C441.862 289.738 442.866 288.79 443.959 287.897C445.087 287.038 446.22 286.156 447.351 285.252C447.914 284.796 448.479 284.339 449.046 283.881C449.649 283.456 450.252 283.031 450.857 282.605C452.061 281.743 453.257 280.862 454.442 279.962C459.413 276.638 464.378 273.215 469.258 270.25C470.457 269.454 471.623 268.593 472.843 267.82C474.081 267.068 475.316 266.318 476.548 265.57L478.396 264.422C479.011 264.036 479.663 263.728 480.295 263.373C481.568 262.672 482.839 261.974 484.107 261.277C485.359 260.523 486.696 259.977 487.991 259.32C489.297 258.674 490.6 258.029 491.9 257.385C493.236 256.814 494.568 256.244 495.898 255.675L497.896 254.798L498.896 254.359L499.914 253.983C501.273 253.47 502.63 252.959 503.984 252.448L506.022 251.665L508.086 251.008C509.466 250.555 510.844 250.103 512.219 249.651L513.254 249.309L514.298 249.031L516.386 248.465C517.784 248.074 519.18 247.684 520.573 247.294C521.98 246.984 523.385 246.674 524.788 246.364L526.901 245.879L527.959 245.631L529.037 245.449C530.48 245.2 531.922 244.951 533.362 244.703C556.516 240.789 581.433 241.932 606.211 247.754C607.054 247.684 607.897 247.622 608.74 247.57L610.005 247.499L611.249 247.5C612.907 247.513 614.561 247.573 616.201 247.693C619.509 247.867 622.637 248.595 625.678 249.546C626.565 249.801 627.475 250.032 628.361 250.34C629.243 250.66 630.132 250.982 631.028 251.307C632.815 251.974 634.628 252.668 636.441 253.411C638.217 254.225 640.004 255.067 641.797 255.925C642.692 256.359 643.59 256.793 644.488 257.228L647.111 258.667C648.861 259.634 650.612 260.601 652.354 261.563C654.051 262.601 655.741 263.633 657.413 264.655C658.255 265.162 659.093 265.666 659.925 266.167C660.729 266.688 661.529 267.205 662.322 267.718C663.122 268.224 663.916 268.726 664.704 269.224C665.483 269.739 666.254 270.25 667.018 270.755C666.569 267.315 672.417 271.845 673.158 270.961C680.482 273.771 687.255 278.637 693.445 284.529C699.65 290.425 705.269 297.332 710.655 304.344C712.19 306.338 711.242 307.063 711.92 309.752C717.763 312.827 723.117 317.152 727.948 322.357C732.78 327.562 737.069 333.661 740.731 340.326C748.075 353.676 752.748 369.208 755.392 384.499C757.235 392.17 758.292 400.079 758.284 408.106C757.665 400.402 756.785 392.46 755.392 384.499C753.284 375.738 750.132 367.317 746.23 359.325C742.319 351.332 737.688 343.752 732.51 336.592C735.327 341.143 738.069 345.738 740.45 350.462C741.714 352.801 742.79 355.198 743.94 357.577C744.513 358.767 744.997 359.982 745.532 361.184C746.043 362.391 746.61 363.587 747.063 364.809C750.959 374.525 754.04 384.493 755.955 394.628L756.671 398.433L757.24 402.251L757.527 404.164L757.734 406.08L758.156 409.919L758.424 413.765C758.518 415.049 758.612 416.335 758.624 417.618L758.732 421.477C758.762 422.761 758.703 423.996 758.697 425.26C758.717 427.778 758.502 430.303 758.362 432.838L758.306 433.789L758.204 434.739L758.001 436.642C757.85 437.909 757.772 439.186 757.567 440.454C757.164 442.988 756.859 445.546 756.306 448.079C756.048 449.347 755.829 450.625 755.544 451.894C755.239 453.159 754.934 454.426 754.629 455.694C752.332 465.397 749.207 474.832 745.541 483.998C744.673 486.315 743.625 488.543 742.661 490.815C742.195 491.96 741.636 493.054 741.114 494.17C740.59 495.287 740.067 496.403 739.544 497.516C738.981 498.611 738.42 499.703 737.858 500.795C737.293 501.887 736.765 503.006 736.148 504.064C734.941 506.197 733.814 508.398 732.515 510.474C727.505 518.914 721.897 527.013 715.551 534.5C709.202 541.978 702.187 548.917 694.482 555.116C688.151 560.095 681.09 564.084 673.671 567.058C671.839 567.871 669.927 568.448 668.044 569.104C666.167 569.788 664.231 570.262 662.312 570.782C661.347 571.023 660.398 571.326 659.422 571.511L656.504 572.1C655.525 572.291 654.575 572.499 653.575 572.673L650.522 573.154C651.738 572.132 652.95 571.117 653.967 570.005C649.111 570.861 643.946 571.55 638.663 572.273C633.366 572.989 627.898 573.709 622.257 574.56C616.62 575.41 610.79 576.397 604.773 577.684C603.269 578.005 601.759 578.338 600.223 578.712C598.701 579.064 597.152 579.463 595.598 579.876L594.374 580.196L593.045 580.566C592.161 580.82 591.276 581.073 590.39 581.327C588.623 581.851 586.869 582.425 585.117 583.004L581.351 584.35C580.104 584.818 578.87 585.322 577.632 585.825C573.196 587.695 568.944 589.774 564.908 592.08C560.883 594.405 557.102 596.996 553.584 599.803C550.051 602.592 546.852 605.693 543.95 608.958C542.47 610.566 541.156 612.299 539.836 613.997C539.201 614.867 538.605 615.761 537.995 616.639L537.088 617.957L536.239 619.306C531.18 627.449 527.814 636.376 525.58 645.478C524.459 650.034 523.616 654.646 522.991 659.286L522.562 662.771L522.207 666.265L521.934 669.676L521.742 672.863C520.887 689.822 521.915 697.826 523.515 714.906C524.696 727.209 527.69 758.869 529.317 770.818C531.751 779.591 536.961 763.708 540.217 778.416C540.435 777.569 540.742 776.726 541.108 775.98C537.982 764.894 534.454 755.128 536.657 751.606C538.922 749.22 541.37 753.356 544.185 759.652C546.994 765.954 550.188 774.431 553.732 780.892C554.714 781.143 555.72 781.571 556.76 782.2C556.76 782.2 557.028 784.149 557.346 786.469C557.726 786.933 558.116 787.306 558.498 787.717C560.118 786.95 561.692 767.622 563.521 768.386C562.8 763.154 562.082 757.936 561.365 752.725C565.983 757.029 569.012 761.587 572.159 769.529C572.195 769.509 572.245 769.502 572.286 769.474C572.313 769.67 572.337 769.85 572.366 770.06C572.992 771.677 573.623 773.371 574.269 775.285C574.287 775.282 574.299 775.281 574.308 775.28C575.502 766.146 576.93 761.428 578.698 759.541C580.461 757.659 582.54 758.64 584.955 761.101C587.37 763.57 590.123 767.534 593.219 771.688C596.316 775.835 599.751 780.185 603.553 783.278C603.565 779.945 603.116 776.002 602.143 771.746C603.351 771.589 605.775 771.275 605.775 771.275C605.145 757.066 605.346 745.768 606.242 735.098C607.137 724.466 608.671 714.485 610.78 703.98C611.165 701.382 612.585 700.007 613.841 698.37C615.094 696.732 616.179 694.826 615.986 691.336C615.75 686.723 615.705 690.833 615.858 686.912C615.921 684.926 616.048 683.093 616.188 681.363L616.301 680.095L616.432 678.9L616.492 678.307L616.555 677.84C616.476 677.814 616.353 677.752 616.169 677.622C616.089 677.565 615.979 677.48 615.892 677.404C615.521 677.072 615.263 676.695 615.068 676.237C614.898 675.807 614.838 675.352 614.884 674.91C614.928 674.466 615.075 674.027 615.314 673.636C615.345 673.59 615.373 673.533 615.402 673.467C615.405 673.459 615.409 673.451 615.413 673.445C615.423 673.437 615.475 673.422 615.504 673.41L615.708 673.336L616.337 673.138C617.175 672.859 618.185 672.593 619.149 672.318C619.614 672.179 620.163 672.046 620.687 671.912L622.271 671.506C623.424 671.24 624.504 670.97 625.718 670.705C630.497 669.64 635.961 668.604 642.027 667.491C648.126 666.368 654.856 665.158 662.253 663.617L665.071 663.015L667.936 662.386L670.911 661.691C671.921 661.449 672.853 661.247 673.97 660.944L680.426 659.221C681.498 658.925 682.576 658.644 683.641 658.328L686.815 657.326L693.145 655.279C695.23 654.543 697.295 653.759 699.364 652.988C703.531 651.492 707.535 649.697 711.577 647.963C711.028 647.901 710.721 647.734 710.675 647.456C712.69 646.632 714.625 645.679 716.583 644.758C718.532 643.825 720.495 642.905 722.423 641.935C724.323 640.925 726.225 639.914 728.129 638.902L730.975 637.367L733.754 635.741C735.599 634.644 737.446 633.546 739.296 632.446C741.123 631.319 742.9 630.132 744.701 628.965C748.333 626.659 751.771 624.134 755.263 621.633C755.694 621.324 756.122 621.019 756.546 620.715C756.954 620.394 757.359 620.076 757.761 619.759C758.56 619.121 759.34 618.479 760.101 617.836C761.62 616.545 763.083 615.261 764.465 613.946C765.82 612.608 767.126 611.267 768.401 609.923C769.666 608.57 770.951 607.256 772.127 605.859C776.939 600.351 781.533 594.789 787.097 588.857C805.948 568.903 820.876 546.34 831.927 522.216C842.955 498.085 850.127 472.297 852.826 445.672C853.13 442.337 853.375 438.993 853.619 435.658C853.768 432.301 853.879 428.939 853.975 425.587C853.968 422.324 853.956 419.064 853.901 415.81ZM694.825 241.69C692.56 240.573 690.302 239.528 688.072 238.512C685.797 237.556 683.55 236.628 681.309 235.741C679.031 234.924 676.764 234.111 674.497 233.298C673.367 232.901 672.252 232.489 671.119 232.108C669.976 231.751 668.832 231.393 667.685 231.034C665.422 230.313 663.148 229.588 660.852 228.857C658.533 228.196 656.22 227.513 653.906 226.795C652.741 226.449 651.609 226.035 650.417 225.718C649.234 225.384 648.051 225.039 646.865 224.682C631.14 220.826 615.049 216.702 598.555 213.828C596.504 213.46 594.446 213.091 592.383 212.721C590.317 212.422 588.245 212.123 586.17 211.823L583.072 211.349L579.956 210.999C577.886 210.758 575.813 210.516 573.74 210.275C565.433 209.593 557.156 208.974 548.983 209.176C547.541 209.371 546.101 209.565 544.671 209.758C543.252 210.034 541.841 210.309 540.443 210.581C538.925 210.8 537.463 210.948 536.044 211.034C534.625 211.123 533.256 211.274 531.912 211.303C530.568 211.349 529.254 211.342 527.958 211.293C527.309 211.269 526.665 211.232 526.025 211.191C525.39 211.182 524.757 211.165 524.126 211.139C523.368 211.267 522.623 211.394 521.878 211.52C522.296 211.382 522.746 211.233 523.164 211.094C521.27 210.995 519.382 210.832 517.468 210.642C516.509 210.522 515.552 210.521 514.581 210.457C513.608 210.406 512.628 210.356 511.636 210.305C510.64 210.261 509.632 210.217 508.608 210.171C508.095 210.156 507.578 210.14 507.057 210.124C506.538 210.14 506.016 210.156 505.488 210.173C503.377 210.25 501.185 210.381 498.89 210.602L497.73 211.428L496.59 212.32C496.338 211.122 496.087 209.926 495.836 208.733C497.17 207.838 498.581 207.169 500.014 206.465C501.45 205.777 502.924 205.133 504.428 204.526C505.928 203.886 507.478 203.423 509.051 202.976C510.625 202.527 512.223 202.111 513.843 201.725C515.459 201.301 517.11 201.056 518.774 200.812C520.438 200.567 522.118 200.346 523.81 200.143C525.497 199.899 527.22 199.864 528.942 199.768C530.666 199.697 532.398 199.626 534.135 199.555C535.003 199.507 535.875 199.52 536.749 199.543L539.371 199.595C541.121 199.63 542.874 199.666 544.628 199.701C548.136 199.899 551.649 200.143 555.155 200.31C558.654 200.657 562.155 200.864 565.641 201.093C567.38 201.252 569.118 201.382 570.856 201.478C571.728 201.517 572.597 201.556 573.464 201.595L574.768 201.633L576.064 201.716C580.557 201.977 585.137 202.201 589.7 202.842C590.846 202.983 591.995 203.123 593.145 203.264L594.875 203.48L596.592 203.774C598.89 204.174 601.194 204.576 603.504 204.978C604.667 205.161 605.813 205.42 606.961 205.679L610.417 206.448C612.724 206.967 615.058 207.439 617.341 208.094C619.646 208.705 621.953 209.317 624.262 209.928C626.561 210.584 628.838 211.321 631.142 212.007L634.6 213.047L638.014 214.211C640.304 214.982 642.593 215.753 644.88 216.523C647.151 217.363 649.418 218.2 651.683 219.036C652.817 219.461 653.979 219.834 655.097 220.291C656.223 220.739 657.348 221.186 658.471 221.632C667.567 225.061 676.443 228.972 685.466 232.713C690.98 235.116 697.14 241.596 701.563 245.365C699.318 244.051 697.048 242.86 694.825 241.69ZM567.987 704.979C568.254 704.527 568.491 704.063 568.728 703.585C569.616 706.484 570.473 709.394 571.268 712.235C569.599 710.284 568.214 707.69 567.987 704.979ZM575.385 715.36C573.137 703.192 571.086 699.588 570.43 688.661C570.263 685.931 570.174 683.274 570.198 680.731C570.207 678.176 570.33 675.738 570.552 673.425C570.703 671.681 571.004 670.048 571.348 668.461C571.724 666.886 572.196 665.394 572.784 664.022C572.572 665.856 572.475 667.71 572.457 669.554C572.43 670.473 572.462 671.396 572.466 672.308C572.469 672.54 572.482 672.764 572.493 672.971L572.509 673.29C572.515 673.373 572.511 673.583 572.512 673.723C572.505 674.343 572.524 674.99 572.535 675.628C572.576 678.179 572.69 680.807 572.858 683.48C573.014 686.141 573.231 688.856 573.47 691.583C574.423 702.496 575.817 705.148 576.343 715.485C576.064 715.515 575.733 715.465 575.385 715.36ZM611.574 658.587C611.535 658.443 611.475 658.226 611.427 658.048C611.499 658.167 611.576 658.291 611.646 658.405C611.619 658.463 611.595 658.522 611.574 658.587ZM758.051 372.397C753.438 358.797 746.357 345.817 737.955 334.827C739.023 333.037 740.14 331.904 741.391 331.362C742.625 330.826 744.008 330.873 745.419 331.503C746.842 332.127 748.358 333.305 749.964 334.964C750.767 335.793 751.531 336.769 752.345 337.843C753.141 338.924 754.002 340.1 754.797 341.41C758.055 346.615 761.277 353.578 764.07 361.681C766.861 369.783 769.168 379.031 770.732 388.731C772.332 398.432 773.092 408.581 773.199 418.501C773.212 419.742 773.225 420.979 773.239 422.212C773.236 423.439 773.183 424.645 773.166 425.855C773.133 427.063 773.142 428.269 773.092 429.467C773.031 430.666 772.97 431.858 772.909 433.043C772.847 435.419 772.614 437.757 772.464 440.069C772.356 442.386 772.049 444.646 771.884 446.883C770.223 464.739 767.655 479.758 770.761 489.089C766.252 490.26 764.169 487.018 763.546 481.608C762.817 476.135 763.421 468.398 763.924 459.918C764.467 451.441 764.917 442.245 764.947 433.945C764.909 431.867 764.948 429.848 764.931 427.908C764.867 425.967 764.834 424.106 764.83 422.348C764.664 418.757 764.65 415.574 764.55 412.987C764.913 400.119 762.644 385.986 758.051 372.397ZM823.195 476.858C818.51 502.009 809.639 526.604 796.186 549.715C789.447 561.256 781.56 572.434 772.306 582.927C763.07 593.425 752.532 603.295 740.61 612.131C731.143 619.279 720.254 626.527 708.536 632.846C696.841 639.186 684.324 644.558 672.244 648.505C668.211 649.88 664.575 650.783 660.898 651.588C657.31 652.346 653.78 652.943 650.491 653.407C650.143 653.135 649.762 652.863 649.347 652.593C653.318 651.84 657.591 650.98 661.98 650.002L665.328 649.232L668.778 648.376C669.365 648.223 669.903 648.1 670.529 647.921L672.376 647.401L676.058 646.333C680.012 644.813 683.634 642.377 686.766 640.349C688.341 639.347 689.741 638.313 691.009 637.495C692.275 636.673 693.397 636.039 694.357 635.702C695.264 635.23 696.185 634.749 697.119 634.263C698.039 633.763 698.972 633.255 699.917 632.741C701.807 631.724 703.759 630.729 705.735 629.698C709.619 627.522 713.741 625.431 717.776 623.012C721.892 620.71 725.919 618.106 730.003 615.49C731.992 614.117 733.984 612.724 735.967 611.312L737.452 610.249L738.892 609.132L741.755 606.877C744.624 604.2 747.635 601.428 750.946 598.736C752.568 597.365 754.225 595.965 755.91 594.54C756.76 593.838 757.617 593.13 758.481 592.417C759.322 591.683 760.168 590.943 761.021 590.199C762.715 588.701 764.487 587.228 766.169 585.648C767.85 584.067 769.539 582.459 771.216 580.819C772.882 579.171 774.453 577.424 776.039 575.677C776.821 574.794 777.62 573.921 778.362 573.005C779.102 572.087 779.831 571.159 780.547 570.221C781.785 568.797 782.562 566.979 782.882 565.421C783.177 563.843 783.049 562.542 782.576 562.155C784.834 559.823 786.924 557.554 788.67 555.2C790.436 552.86 792.1 550.596 793.47 548.249C794.858 545.915 796.188 543.646 797.321 541.318C798.456 538.991 799.523 536.682 800.561 534.369C801.529 532.028 802.496 529.687 803.481 527.306C804.463 524.936 805.368 522.488 806.416 520.03C806.678 519.416 806.942 518.797 807.209 518.172C807.465 517.543 807.723 516.909 807.984 516.269C808.512 514.992 809.067 513.7 809.655 512.389C810.869 509.786 812.034 507.022 813.458 504.182L810.16 508.661C809.064 510.145 807.876 511.575 806.74 513.019C807.374 511.333 808.005 509.712 808.524 508.083C809.041 506.451 809.526 504.848 809.992 503.258C810.968 500.097 811.652 496.887 812.46 493.635C812.876 492.014 813.193 490.327 813.564 488.617C813.934 486.91 814.314 485.156 814.708 483.333C815.059 481.5 815.436 479.607 815.847 477.636C816.044 476.648 816.285 475.652 816.472 474.612C816.668 473.577 816.869 472.517 817.075 471.429C817.523 469.722 817.906 468.056 818.171 466.412C818.41 464.76 818.579 463.144 818.699 461.565C818.98 458.419 818.876 455.372 818.792 452.472C818.743 449.579 818.472 446.775 818.403 444.081C818.36 441.389 818.295 438.76 818.555 436.167L818.654 432.907L818.65 429.639L818.642 426.38C818.637 425.296 818.651 424.207 818.594 423.146C818.516 421.016 818.438 418.889 818.36 416.767C818.259 414.649 818.078 412.542 817.938 410.443C817.855 409.395 817.807 408.346 817.693 407.305C817.582 406.265 817.472 405.226 817.361 404.189C817.123 402.12 816.951 400.053 816.623 398.019C816.319 395.984 816.016 393.959 815.715 391.946C815.354 389.945 814.967 387.962 814.584 385.996C812.952 378.152 810.936 370.632 808.305 363.685C807.982 362.817 807.66 361.952 807.34 361.093C807.004 360.24 806.639 359.402 806.285 358.568C805.571 356.901 804.845 355.265 804.106 353.662C803.327 352.074 802.521 350.525 801.709 349.008C801.296 348.255 800.886 347.506 800.479 346.764C800.062 346.026 799.609 345.31 799.17 344.598C800.88 345.751 802.174 347.929 803.331 350.162C803.896 351.286 804.461 352.41 804.98 353.44C805.48 354.481 805.971 355.42 806.483 356.143C807.322 357.203 808.141 358.343 808.944 359.557C809.755 360.768 810.466 362.08 811.204 363.446C811.931 364.814 812.647 366.249 813.335 367.747C813.984 369.257 814.617 370.827 815.234 372.45C815.535 373.265 815.841 374.089 816.15 374.924C816.449 375.762 816.704 376.623 816.978 377.489C817.515 379.225 818.038 381.007 818.549 382.828C819.026 384.656 819.452 386.532 819.889 388.436C820.101 389.39 820.314 390.35 820.528 391.317C820.706 392.291 820.885 393.271 821.065 394.256C822.564 402.138 823.438 410.496 824.054 418.872C824.183 420.973 824.358 423.055 824.464 425.17C824.551 427.304 824.638 429.43 824.724 431.539L824.799 433.124L824.826 434.698C824.849 435.748 824.871 436.794 824.893 437.833C824.941 439.917 825.041 441.994 825.033 444.029C824.847 454.833 825.04 466.007 823.195 476.858Z" fill="black"/>
<path d="M541.752 180.101C540.42 180.095 539.091 180.09 537.764 180.084C536.436 180.09 535.11 180.048 533.789 180.138C531.145 180.267 528.508 180.395 525.876 180.524C524.56 180.564 523.251 180.705 521.945 180.84C520.638 180.972 519.333 181.104 518.029 181.236L514.123 181.635C512.823 181.782 511.535 182.015 510.243 182.201C507.663 182.604 505.083 182.965 502.518 183.401C497.418 184.455 492.308 185.354 487.301 186.706C482.246 187.847 477.313 189.421 472.339 190.834C469.873 191.611 467.435 192.478 464.975 193.281C463.75 193.695 462.514 194.081 461.294 194.511L457.661 195.889C447.904 199.399 438.388 203.633 428.875 208.169C427.574 209.11 426.271 210.052 424.968 210.995L423.017 212.402C422.378 212.889 421.756 213.402 421.125 213.9C419.87 214.898 418.614 215.898 417.357 216.898L415.475 218.39L414.534 219.134L413.626 219.925C411.217 222.025 408.804 224.128 406.386 226.236C404.078 228.44 401.765 230.648 399.447 232.86L398.812 233.536L398.209 234.247L397.007 235.666L394.623 238.496L392.263 241.314C391.499 242.273 390.786 243.277 390.051 244.253C388.597 246.22 387.149 248.17 385.735 250.129L381.808 256.233C375.42 265.693 369.24 275.593 363.621 286.086C357.97 296.551 353.049 307.679 348.995 319.187C344.953 330.698 341.86 342.639 340.033 354.67C338.203 366.694 337.632 378.804 338.519 390.484C342.164 391.81 345.817 391.82 349.554 390.181C350.36 378.248 351.799 366.425 354.023 354.707C356.255 342.998 359.311 331.394 363.445 320.135C371.676 297.638 384.412 276.485 402.361 260.603C402.535 260.25 402.735 259.905 402.902 259.542C403.511 258.322 404.187 257.085 404.924 255.833C405.715 254.636 406.579 253.436 407.492 252.219C408.405 251.003 409.373 249.775 410.387 248.536C411.416 247.313 412.575 246.172 413.728 244.973C414.891 243.785 416.095 242.587 417.33 241.382C418.608 240.228 419.952 239.11 421.302 237.96C422.668 236.83 424.016 235.633 425.46 234.535C426.923 233.459 428.398 232.373 429.882 231.281C432.809 229.018 436.013 227.084 439.125 224.974C440.668 223.895 442.294 222.953 443.901 221.979C445.507 221.002 447.105 220.014 448.691 219.012C450.287 218.03 451.928 217.152 453.519 216.192C455.117 215.229 456.7 214.273 458.265 213.33C459.86 212.438 461.431 211.526 462.973 210.591C463.743 210.115 464.507 209.642 465.265 209.173C466.019 208.688 466.769 208.207 467.53 207.774C479.347 199.758 492.621 193.965 506.469 189.686C520.339 185.394 534.809 182.628 549.759 180.353C548.421 180.278 547.086 180.203 545.753 180.129C544.416 180.12 543.083 180.11 541.752 180.101Z" fill="black"/>
<path d="M700.741 184.065C702.125 184.885 703.454 185.794 704.794 186.686L708.808 189.378L712.815 192.091L716.768 194.963C719.422 196.857 721.975 198.879 724.548 200.882C735.192 208.463 745.371 215.18 755.355 222.027C765.327 228.871 775.107 235.839 784.487 243.974C783.341 242.608 782.131 241.298 780.939 239.973L777.345 236.013L773.646 232.146C772.411 230.859 771.183 229.566 769.901 228.323C767.36 225.815 764.833 223.295 762.19 220.884C760.878 219.671 759.578 218.443 758.248 217.247C756.904 216.066 755.559 214.885 754.212 213.702C746.557 207.299 738.795 201.501 730.945 196.219C728.958 194.934 726.982 193.655 725.015 192.383C723.06 191.104 721.028 189.94 719.05 188.737C718.055 188.146 717.063 187.556 716.072 186.967C715.071 186.415 714.072 185.864 713.075 185.313C711.081 184.226 709.093 183.142 707.112 182.062C691.164 173.651 674.942 167.058 658.205 161.978C669.949 166.911 681.392 172.642 692.507 179.058C695.25 180.725 697.995 182.395 700.741 184.065Z" fill="black"/>
<path d="M659.058 171.215L655.205 169.516C653.93 168.931 652.602 168.463 651.303 167.933C648.69 166.912 646.079 165.892 643.47 164.873C640.838 163.911 638.176 163.032 635.531 162.12L631.56 160.773C630.226 160.353 628.879 159.971 627.539 159.571C624.857 158.788 622.176 158.006 619.496 157.223C616.784 156.553 614.073 155.883 611.363 155.214C610.007 154.888 608.658 154.541 607.298 154.238L603.194 153.411C600.457 152.874 597.733 152.299 594.991 151.813L586.732 150.541C585.353 150.349 583.99 150.091 582.601 149.957L578.448 149.503L574.3 149.06C572.916 148.925 571.543 148.738 570.148 148.674C564.588 148.337 559.059 147.894 553.49 147.902L549.325 147.839L547.245 147.811C546.552 147.807 545.855 147.843 545.161 147.858L536.835 148.112C552.418 146.766 568.167 146.757 583.881 147.964C599.592 149.198 615.267 151.641 630.789 155.184C633.146 155.577 635.433 156.141 637.74 156.65C640.047 157.179 642.344 157.706 644.635 158.231C646.918 158.795 649.164 159.446 651.429 160.059C653.685 160.694 655.962 161.294 658.205 161.977C623.347 147.472 585.907 139.908 548.398 139.932C547.436 139.941 546.47 140.007 545.504 140.073L542.611 140.264L536.838 140.655C534.918 140.757 532.996 140.988 531.078 141.204L525.333 141.854L522.469 142.184C521.514 142.305 520.558 142.477 519.604 142.622L513.889 143.539L511.039 144.002L509.617 144.237L508.204 144.531L502.564 145.713C487.564 148.938 472.977 153.449 458.987 159.174C431.008 170.567 405.413 187.077 384.269 207.753C383.053 208.902 381.839 210.047 380.627 211.191C379.461 212.385 378.297 213.576 377.134 214.766C375.971 215.945 374.81 217.122 373.65 218.297C373.075 218.889 372.479 219.453 371.922 220.061L370.261 221.892C390.432 203.599 413.564 189.024 438.027 178.591C450.248 173.344 462.753 168.956 475.446 165.58C488.149 162.241 500.991 159.793 513.859 158.188C526.747 156.524 539.577 155.994 552.279 156.042C555.453 156.075 558.632 156.03 561.778 156.225C564.929 156.378 568.087 156.463 571.223 156.654C574.359 156.898 577.483 157.141 580.596 157.382C582.162 157.474 583.705 157.674 585.253 157.846C586.803 158.018 588.349 158.189 589.893 158.361C591.438 158.537 592.989 158.684 594.527 158.879C596.061 159.101 597.591 159.323 599.119 159.544C600.652 159.762 602.181 159.979 603.708 160.196L606.002 160.516L608.271 160.917C611.309 161.443 614.334 161.967 617.346 162.488C620.349 163.097 623.34 163.703 626.316 164.306C638.211 166.858 649.967 169.687 661.397 173.111C662.248 173.334 663.141 173.59 664.046 173.855C664.498 173.988 664.953 174.121 665.408 174.255C665.855 174.403 666.301 174.55 666.742 174.695C665.491 174.053 664.193 173.504 662.912 172.926L659.058 171.215Z" fill="black"/>
<path d="M431.414 206.333C432.275 205.747 433.156 205.195 434.026 204.624C435.774 203.48 437.517 202.34 439.253 201.205C436.649 202.45 434.08 203.678 431.504 204.911C428.763 206.851 426.136 208.846 423.507 210.792C425.302 209.915 427.098 209.037 428.874 208.169L431.414 206.333Z" fill="black"/>
<path d="M586.283 208.874C574.755 206.975 563.208 206.025 552.407 206.327C541.608 206.548 531.567 208.309 523.163 211.094C523.477 211.109 523.798 211.124 524.125 211.139C526.118 210.744 528.163 210.586 530.207 210.338C531.231 210.222 532.258 210.106 533.286 209.991C534.316 209.882 535.347 209.734 536.387 209.698C540.542 209.482 544.741 209.113 548.983 209.177C560.747 207.603 573.409 207.415 586.283 208.874Z" fill="black"/>
<path d="M590.205 246.351L586.572 246.598C587.672 246.906 589.317 247.367 590.964 247.828C591.792 248.036 592.604 248.321 593.352 248.569C594.1 248.816 594.782 249.04 595.329 249.22C596.897 248.953 598.447 248.688 600.015 248.421C597.971 247.7 595.914 246.946 593.867 246.169C592.653 246.169 591.423 246.267 590.205 246.351Z" fill="black"/>
<path d="M711.92 309.755L710.526 308.208L709.087 306.703C708.13 305.704 707.176 304.707 706.223 303.712C705.24 302.746 704.259 301.782 703.279 300.82L701.817 299.382L700.31 297.988C699.311 297.063 698.314 296.139 697.317 295.216C696.295 294.323 695.275 293.432 694.257 292.542C693.747 292.1 693.249 291.649 692.733 291.215L691.173 289.932C690.137 289.08 689.103 288.23 688.071 287.381C687.015 286.562 685.962 285.745 684.91 284.929L683.337 283.712L681.73 282.542C680.664 281.764 679.599 280.988 678.536 280.213C677.453 279.47 676.371 278.728 675.291 277.988L673.677 276.881L672.032 275.826C670.941 275.123 669.852 274.421 668.764 273.72C667.658 273.054 666.553 272.389 665.449 271.726L663.803 270.73L662.128 269.789C661.017 269.163 659.908 268.538 658.799 267.914C657.654 267.32 656.509 266.727 655.366 266.135C653.072 264.967 650.852 263.72 648.502 262.691L645.04 261.076C643.886 260.545 642.761 259.973 641.574 259.511C639.242 258.538 636.914 257.566 634.589 256.595C625.204 252.952 615.713 250.011 606.211 247.756C604.133 247.94 602.074 248.118 600.016 248.422C612.004 252.966 623.716 258.15 635.27 263.396C636.711 264.058 638.167 264.694 639.623 265.328C641.042 266.023 642.472 266.699 643.911 267.358C644.635 267.683 645.357 268.008 646.078 268.332C646.805 268.649 647.535 268.962 648.235 269.32C649.651 270.009 651.079 270.679 652.519 271.331C658.308 273.965 664.007 276.557 669.589 279.096C670.145 279.359 670.761 279.611 671.409 279.872C672.048 280.145 672.727 280.419 673.433 280.694C674.835 281.255 676.378 281.787 677.845 282.426C679.313 283.063 680.768 283.733 682.082 284.451C683.392 285.175 684.514 285.998 685.394 286.845C686.485 287.802 687.579 288.752 688.633 289.738C689.709 290.706 690.782 291.67 691.853 292.632C693.938 294.612 696.107 296.511 698.157 298.508C700.273 300.451 702.287 302.472 704.358 304.45C705.386 305.445 706.366 306.475 707.384 307.479L708.905 308.99L710.383 310.533C711.375 311.562 712.366 312.589 713.356 313.614C714.321 314.664 715.286 315.711 716.248 316.758C717.236 317.794 718.163 318.869 719.102 319.939C720.032 321.014 721.014 322.063 721.918 323.158C723.737 325.342 725.601 327.516 727.333 329.772C729.143 331.992 730.789 334.301 732.508 336.596C726.655 327.467 720.082 318.676 712.535 310.451C712.328 310.214 712.128 309.989 711.92 309.755Z" fill="black"/>
<path d="M647.573 974.942L646.872 974.768C649.123 973.689 651.001 972.137 651.878 970.035C652.343 968.881 651.627 967.753 651.329 966.623C651.27 964.893 649.245 963.882 646.824 964.375C646.167 964.509 645.555 964.745 645.005 965.043C642.142 965.128 639.239 965.356 636.445 965.281C636.391 965.275 636.335 965.288 636.28 965.288C636.127 965.195 635.908 965.142 635.657 965.165C635.592 965.169 635.528 965.176 635.463 965.179C635.468 965.175 635.489 965.159 635.632 965.044C635.906 964.848 636.146 964.676 636.493 964.427C636.493 964.427 636.489 964.401 636.482 964.362C636.55 964.306 636.622 964.246 636.697 964.184L637.796 964.061C638.211 964.026 638.586 963.788 638.753 963.503C638.919 963.654 639.095 963.807 639.311 963.948C641.417 963.794 641.417 963.794 643.574 963.591C643.574 963.591 643.543 963.4 643.438 963.15C643.519 963.11 644.194 962.725 645.03 962.62C645.816 962.387 645.815 962.388 647.834 962.2C647.834 962.2 647.834 962.2 646.774 961.686C646.774 961.686 646.774 961.686 647.683 961.998C647.683 961.998 647.683 961.998 647.343 961.193C647.343 961.193 647.344 961.193 647.86 962.034C647.86 962.034 647.86 962.034 648.12 961.238C648.12 961.238 648.127 961.244 650.066 962.863C650.189 962.786 650.481 962.603 651.213 962.142C651.213 962.142 651.399 961.894 651.521 961.619C651.502 961.365 651.503 961.365 652.033 960.321C652.033 960.321 652.005 960.028 651.896 959.738C651.654 959.505 651.654 959.505 651.488 958.729C651.488 958.729 651.217 958.482 650.848 958.305C650.51 958.234 650.422 958.216 649.18 958.026C649.263 957.868 649.339 957.702 649.404 957.536C649.422 956.013 649.417 956.014 647.475 952.98C647.475 952.98 646.53 952.256 645.121 951.919C643.55 952.001 643.55 952.001 641.741 952.094C641.741 952.094 641.34 952.084 640.656 952.067C640.088 951.639 639.96 951.522 639.527 951.116C639.527 951.116 639.525 951.116 639.518 951.11C639.85 950.99 640.166 950.809 640.417 950.579C641.145 949.899 641.141 949.039 640.401 948.644C640.967 946.162 640.165 944.251 638.804 942.571C638.98 941.946 639.013 941.326 638.971 940.715C639.626 940.697 640.279 940.654 640.935 940.64C641.261 940.962 641.479 941.176 641.479 941.176C641.274 940.972 641.101 940.799 640.941 940.64C641.337 940.64 641.675 940.411 641.664 940.152C641.653 939.889 641.288 939.702 640.849 939.732C640.247 939.751 639.648 939.798 639.046 939.819C639.981 937.662 640.466 935.506 640.498 933.339L640.388 931.395C639.798 929.88 638.526 928.648 636.793 927.893L636.254 927.556L636.494 925.869C636.112 925.326 635.681 924.818 635.229 924.326C636.708 924.419 638.185 924.483 639.663 924.597C640.058 924.637 640.41 924.441 640.417 924.181C640.425 923.917 640.074 923.695 639.634 923.681C637.848 923.545 636.064 923.448 634.278 923.341C632.916 922.032 631.385 920.839 629.911 919.599C631.875 919.265 633.84 918.929 635.805 918.591C637.819 918.343 639.265 917.15 639.012 915.951C638.764 914.744 636.902 913.957 634.901 914.205C631.505 914.377 628.174 914.666 624.869 915.023L624.46 914.694C623.449 913.778 622.112 913.165 620.61 912.819C622.643 912.529 624.668 912.221 626.678 911.872C627.076 911.807 627.3 911.58 627.174 911.336C627.048 911.096 626.65 910.949 626.257 911.017C622.495 911.082 618.753 911.201 615.015 911.332C616.682 909.049 617.359 906.435 616.653 904.035C616.591 903.834 616.508 903.643 616.428 903.45C622.942 902.984 629.458 902.501 635.996 902.052C638.047 902.005 639.589 900.957 639.414 899.734C639.246 898.503 637.413 897.53 635.37 897.579C620.063 896.839 605.83 898.262 590.22 899.598C579.105 900.541 569.351 901.161 558.215 901.652C554.457 901.813 550.786 901.847 547.153 901.813L541.859 894.04C541.097 893.389 539.934 892.894 538.552 892.722C537.975 892.495 537.296 892.322 536.884 892.032C533.194 889.352 528.629 887.375 523.567 885.781C524.531 886.309 525.539 886.837 526.505 887.363C525.043 886.882 523.602 886.386 521.955 886.249C522.114 886.546 522.324 886.849 522.484 887.151C517.489 884.722 510.476 884.986 506.822 887.722C503.155 890.465 504.213 894.643 509.21 897.069L509.93 897.44C507.309 897.72 504.995 898.539 503.636 900.166C502.908 901.062 503.453 902.296 503.551 903.405C503.271 904.979 505.259 906.511 507.977 906.811C508.61 906.88 509.221 906.871 509.796 906.806C509.601 906.944 509.407 907.083 509.234 907.245C508.79 907.672 508.714 908.26 508.727 908.886C508.32 908.836 507.789 908.729 506.458 908.459C506.458 908.459 506.458 908.459 507.507 909.246C507.507 909.246 507.507 909.246 506.582 908.687C506.582 908.687 506.582 908.687 506.792 909.516C506.792 909.516 506.792 909.516 506.396 908.6C506.396 908.6 506.396 908.6 505.959 909.236C505.959 909.236 505.953 909.229 504.17 907.176C504.022 907.208 503.67 907.282 502.786 907.472C502.786 907.472 502.535 907.639 502.349 907.848C502.318 908.083 502.318 908.083 501.535 908.859C501.535 908.859 501.505 909.13 501.566 909.425C501.782 909.709 501.782 909.709 501.806 910.458C501.806 910.458 502.051 910.764 502.416 911.037C502.769 911.205 502.861 911.248 504.174 911.801C504.052 911.918 503.937 912.043 503.833 912.173C503.512 913.538 503.512 913.538 505.032 916.867C505.032 916.867 505.922 917.808 507.4 918.546C507.812 918.647 508.122 918.723 508.388 918.788C508.427 918.812 508.458 918.83 508.499 918.856C508.367 918.953 508.24 919.06 508.123 919.172C507.662 920.475 507.659 920.474 508.8 924.009C508.8 924.009 508.843 924.067 508.915 924.157C508 924.377 507.158 924.699 506.427 925.131C502.594 927.379 503.225 931.662 507.915 934.729L508.589 935.194C505.99 935.127 503.643 935.634 502.153 937.075C501.353 937.869 501.774 939.166 501.767 940.279C501.344 941.806 503.165 943.59 505.824 944.248C506.545 944.427 507.247 944.496 507.901 944.484C508.671 944.794 509.444 945.1 510.222 945.401L510.069 945.999C510.103 946.276 510.196 946.557 510.28 946.838C509.937 946.718 509.535 946.576 509.003 946.389C509.003 946.389 508.984 946.569 509.027 946.834C508.932 946.832 508.122 946.864 507.219 946.58C506.334 946.429 506.334 946.429 504.174 945.685C504.174 945.685 504.174 945.685 505.14 946.606C505.14 946.606 505.14 946.606 504.277 945.928C504.277 945.928 504.277 945.928 504.409 946.78C504.409 946.78 504.409 946.78 504.101 945.817C504.101 945.817 504.101 945.817 503.609 946.391C503.609 946.391 503.604 946.383 502.029 944.107C501.879 944.119 501.525 944.148 500.633 944.218C500.633 944.218 500.37 944.35 500.165 944.534C500.113 944.764 500.113 944.764 499.265 945.43C499.265 945.43 499.21 945.695 499.242 945.996C499.43 946.307 499.43 946.307 499.383 947.054C499.383 947.054 499.597 947.39 499.934 947.709C500.268 947.924 500.355 947.978 501.605 948.703C501.474 948.802 501.348 948.912 501.233 949.027C500.789 950.34 500.786 950.339 501.993 953.849C501.993 953.849 502.791 954.904 504.196 955.834C505.889 956.475 505.889 956.475 507.842 957.214C507.842 957.214 508.265 957.404 508.991 957.729C509.482 958.36 509.588 958.52 509.941 959.069C509.941 959.069 509.944 959.07 509.949 959.078C509.563 959.032 509.176 959.046 508.846 959.132C507.885 959.392 507.654 960.141 508.342 960.821C507.283 962.395 507.343 964.056 507.973 965.763C507.327 965.655 506.783 965.829 506.729 966.212C506.666 966.643 507.24 967.174 507.989 967.38C508.022 967.392 508.056 967.403 508.089 967.415C507.839 967.882 507.655 968.373 507.621 968.91C505.898 970.402 504.714 972.121 504.05 974.072L503.631 975.81C503.697 976.266 503.85 976.727 504.049 977.189C499.733 976.007 495.429 974.703 491.128 973.358C490.755 973.231 490.391 973.327 490.35 973.562C490.31 973.801 490.619 974.085 491.041 974.201C495.53 975.707 500.046 977.015 504.574 978.204C505.084 979 505.779 979.78 506.64 980.51L507.147 981.052L506.418 982.406C507.334 984.562 508.846 986.645 510.44 988.711C509.387 988.63 508.333 988.549 507.284 988.469C505.585 988.323 503.892 988.177 502.206 988.032C501.81 987.998 501.567 988.152 501.664 988.405C501.76 988.655 502.132 988.883 502.524 988.914C505.682 989.683 508.861 990.234 512.033 990.767C513.154 992.218 514.237 993.668 515.093 995.137L517.061 997.515C517.421 997.997 517.851 998.461 518.334 998.907C509.551 997.727 500.769 996.402 491.942 994.797C489.913 994.348 488.26 994.933 488.282 996.091C488.297 997.255 489.999 998.586 492.033 999.036C495.809 1000.13 499.535 1001.08 503.238 1001.93C506.952 1002.73 510.667 1003.29 514.38 1003.87C518.101 1004.4 521.81 1005.01 525.603 1005.33C525.672 1005.34 525.742 1005.34 525.812 1005.35C524.149 1006.61 523.24 1008.28 523.424 1010.23C523.579 1011.77 531.157 1010.38 541.734 1007.77C541.866 1010.93 540.414 1014.51 549.78 1012.48C553.237 1011.75 556.492 1010.84 559.618 1009.81C561 1009.34 562.349 1008.84 563.686 1008.32C564.017 1008.29 564.35 1008.27 564.681 1008.23C566.98 1007.97 569.271 1007.73 571.525 1007.6C571.28 1007.1 571.029 1006.6 570.785 1006.11C572.467 1006.23 573.512 1007.03 575.348 1007C574.81 1006.69 574.297 1006.4 573.758 1006.09L573.868 1006.09C575.874 1006.62 578.242 1006.59 580.668 1006.21C586.385 1007.65 593.259 1007.7 600.373 1006.82C601.357 1007.27 602.778 1007.43 604.398 1007.17C605.099 1007.23 605.902 1007.16 606.424 1007.32C611.112 1008.81 616.707 1009.24 622.822 1009.08C621.612 1008.88 620.356 1008.68 619.146 1008.49C620.911 1008.46 622.659 1008.46 624.57 1008.01C624.318 1007.77 624.036 1007.5 623.781 1007.26C629.978 1007.96 637.917 1004.73 641.435 1000.47C644.966 996.161 642.784 992.276 636.659 991.747L635.776 991.647C637.096 991.033 638.309 990.324 639.352 989.524C643.893 989.821 649.039 987.502 651.449 984.01C654.181 980.031 652.42 975.987 647.573 974.942Z" fill="black"/>
<path d="M652.72 945.9C652.967 946.098 653.118 946.22 653.297 946.282C652.722 945.902 652.72 945.9 652.72 945.9Z" fill="black"/>
<path d="M577.674 897.661C579.343 897.347 581.007 897.038 582.667 896.735C573.501 896.653 564.244 896.287 554.832 895.472C551.46 895.177 548.143 894.888 544.846 894.58C544.882 894.736 544.914 894.888 544.907 895.042C544.88 895.656 544.539 896.199 543.99 896.638C547.733 897.049 551.5 897.553 555.278 898.14C562.668 897.749 570.071 897.376 577.674 897.661Z" fill="black"/>
</g>
<defs>
<clipPath id="clip0_329_346">
<rect width="1153" height="1153" fill="white"/>
</clipPath>
</defs>
</svg>
